#!OML:ASF Y:\EmotionMaleHayes\Project 1\Capture day 1\Session 1\Male1.ASF
:FULLY-SPECIFIED
:DEGREES
64
root -28.5732 17.1418 0.173568 25.2669 86.0906 22.9592
lowerback 4.81831 0.858778 -4.04281
upperback 0.986329 0.951545 -0.380609
thorax -1.74481 0.501835 1.81599
lowerneck -20.7753 2.44265 3.99417
upperneck 25.4607 2.80277 -1.50483
head 11.8875 1.54366 -0.759868
rclavicle 4.88265e-015 1.19271e-015
rhumerus -32.9788 1.60801 -88.1959
rradius 29.6152
rwrist 6.79338
rhand -12.1242 -26.6788
rfingers 7.12502
rthumb 13.9373 -56.1917
lclavicle 4.88265e-015 1.19271e-015
lhumerus -29.6418 -11.4815 90.9372
lradius 22.7748
lwrist -16.0175
lhand -15.0349 -25.9584
lfingers 7.12502
lthumb 11.1311 3.72641
rfemur 8.04165 -3.08761 12.6463
rtibia 3.79937
rfoot -15.5098 -4.19297
rtoes -1.01722
lfemur 10.6947 0.831373 -16.8166
ltibia -2.21762
lfoot -10.8746 8.5205
ltoes 0
65
root -28.5718 17.1433 0.174561 27.1601 86.0448 24.8209
lowerback 4.58672 0.842518 -4.18101
upperback 1.09251 0.938334 -0.420183
thorax -1.50653 0.490436 1.85755
lowerneck -20.811 2.44883 3.96275
upperneck 25.3856 2.80907 -1.48299
head 11.8647 1.54417 -0.745415
rclavicle 1.73937e-016 1.2921e-014
rhumerus -32.8005 1.57533 -88.2073
rradius 29.5716
rwrist 6.9543
rhand -12.1583 -26.4772
rfingers 7.12502
rthumb 13.9045 -55.9923
lclavicle 1.73937e-016 1.2921e-014
lhumerus -29.497 -11.4997 90.862
lradius 22.7357
lwrist -16.016
lhand -14.3896 -26.0151
lfingers 7.12502
lthumb 11.7534 3.63516
rfemur 8.01667 -3.1409 12.4725
rtibia 3.80731
rfoot -15.4943 -4.10004
rtoes -0.841681
lfemur 10.7528 0.506741 -17.0962
ltibia -2.39908
lfoot -10.8961 8.79437
ltoes 0
66
root -28.5714 17.1449 0.175034 30.6171 85.9243 28.259
lowerback 4.74292 0.869473 -4.50398
upperback 0.962057 0.945446 -0.462018
thorax -1.73301 0.501467 1.9917
lowerneck -20.7453 2.41289 3.94118
upperneck 25.4789 2.78544 -1.51698
head 11.8872 1.52995 -0.758548
rclavicle 6.8208e-015 9.93923e-015
rhumerus -32.9919 1.54988 -88.1735
rradius 29.6324
rwrist 6.95884
rhand -12.1846 -26.5352
rfingers 7.12502
rthumb 13.8791 -56.0521
lclavicle 6.8208e-015 9.93923e-015
lhumerus -29.6625 -11.4065 90.9007
lradius 22.6251
lwrist -16.1824
lhand -14.5144 -26.2824
lfingers 7.12502
lthumb 11.633 3.37463
rfemur 7.99914 -3.12463 12.1403
rtibia 3.80327
rfoot -15.5033 -4.09583
rtoes -0.903679
lfemur 10.8024 0.144147 -17.5489
ltibia -2.54919
lfoot -11.0118 9.0876
ltoes 0
67
root -28.5704 17.1451 0.175665 30.9974 85.8953 28.657
lowerback 4.81299 0.881146 -4.57533
upperback 0.932297 0.952648 -0.452225
thorax -1.80467 0.5073 2.04008
lowerneck -20.7391 2.41398 3.94723
upperneck 25.4974 2.79463 -1.54458
head 11.894 1.53147 -0.768364
rclavicle -9.0944e-015 6.95746e-016
rhumerus -33.022 1.55742 -88.1695
rradius 29.6612
rwrist 6.82828
rhand -12.2301 -26.7762
rfingers 7.12502
rthumb 13.8353 -56.296
lclavicle -9.0944e-015 6.95746e-016
lhumerus -29.7148 -11.3801 90.9188
lradius 22.5536
lwrist -16.1596
lhand -15.0609 -26.2996
lfingers 7.12502
lthumb 11.1061 3.38652
rfemur 8.03333 -3.07798 12.1028
rtibia 3.77539
rfoot -15.5167 -4.1437
rtoes -0.491122
lfemur 10.7116 0.50091 -17.4808
ltibia -2.33878
lfoot -11.0024 8.77062
ltoes 0
68
root -28.5689 17.1447 0.175885 28.8295 85.9631 26.483
lowerback 4.74605 0.885051 -4.39838
upperback 0.975328 0.972135 -0.407994
thorax -1.72217 0.513719 1.98656
lowerneck -20.8047 2.41796 3.92732
upperneck 25.496 2.79109 -1.50601
head 11.9053 1.53201 -0.750671
rclavicle 3.49116e-015 4.17448e-015
rhumerus -32.9558 1.54063 -88.1601
rradius 29.6516
rwrist 6.82131
rhand -12.3018 -26.7283
rfingers 7.12502
rthumb 13.7662 -56.2529
lclavicle 3.49116e-015 4.17448e-015
lhumerus -29.684 -11.4111 90.9058
lradius 22.5231
lwrist -16.0992
lhand -15.5083 -26.2573
lfingers 7.12502
lthumb 10.6745 3.45151
rfemur 8.02927 -3.15561 12.2932
rtibia 3.77405
rfoot -15.4842 -4.12894
rtoes -0.275883
lfemur 10.5594 1.17159 -17.0496
ltibia -2.02918
lfoot -10.8571 8.15598
ltoes 0
69
root -28.5675 17.1449 0.175486 27.637 85.9799 25.2946
lowerback 4.6576 0.888773 -4.29785
upperback 1.03061 0.988708 -0.394112
thorax -1.61546 0.518719 1.94522
lowerneck -20.862 2.41622 3.94879
upperneck 25.5277 2.78852 -1.53824
head 11.9298 1.52838 -0.766211
rclavicle 7.29291e-015 -1.19271e-015
rhumerus -32.9155 1.6118 -88.1871
rradius 29.6793
rwrist 6.77456
rhand -12.3153 -26.6345
rfingers 7.12502
rthumb 13.7531 -56.1599
lclavicle 7.29291e-015 -1.19271e-015
lhumerus -29.5955 -11.2044 90.7791
lradius 22.4524
lwrist -16.3298
lhand -15.6098 -26.4618
lfingers 7.12502
lthumb 10.5766 3.25207
rfemur 8.02964 -3.19174 12.3857
rtibia 3.77626
rfoot -15.4806 -4.13339
rtoes -0.992287
lfemur 10.6264 1.17109 -16.9554
ltibia -2.11505
lfoot -10.7526 8.15958
ltoes 0
70
root -28.566 17.1452 0.174193 26.5083 86.0019 24.2023
lowerback 4.67682 0.895394 -4.20352
upperback 1.03441 1.00132 -0.37356
thorax -1.62196 0.524624 1.91251
lowerneck -20.832 2.41534 4.00588
upperneck 25.5429 2.79486 -1.62033
head 11.9322 1.52669 -0.805665
rclavicle -9.65348e-015 4.96962e-015
rhumerus -32.9659 1.65399 -88.1998
rradius 29.7057
rwrist 6.75236
rhand -12.2634 -26.4986
rfingers 7.12502
rthumb 13.8032 -56.0207
lclavicle -9.65348e-015 4.96962e-015
lhumerus -29.555 -10.8009 90.602
lradius 22.3315
lwrist -16.8106
lhand -15.7785 -26.6881
lfingers 7.12502
lthumb 10.4138 3.03398
rfemur 8.078 -3.16362 12.4872
rtibia 3.80681
rfoot -15.5617 -4.13935
rtoes -1.10313
lfemur 10.7883 0.967987 -16.9372
ltibia -2.31465
lfoot -10.758 8.36957
ltoes 0
71
root -28.5662 17.1413 0.171997 25.311 86.086 22.9254
lowerback 4.64223 0.875224 -4.04827
upperback 0.983389 0.98159 -0.347429
thorax -1.6519 0.514917 1.8537
lowerneck -20.79 2.41714 3.99373
upperneck 25.5333 2.79587 -1.59274
head 11.9196 1.5301 -0.793473
rclavicle 4.24902e-015 6.06293e-015
rhumerus -33.0266 1.66193 -88.2068
rradius 29.7319
rwrist 6.85533
rhand -12.2456 -26.3947
rfingers 7.12502
rthumb 13.8203 -55.9156
lclavicle 4.24902e-015 6.06293e-015
lhumerus -29.5776 -10.4616 90.4641
lradius 22.2314
lwrist -17.2002
lhand -15.4008 -27.0136
lfingers 7.12502
lthumb 10.7782 2.68988
rfemur 7.98466 -3.27277 12.6035
rtibia 3.87591
rfoot -15.5777 -4.12341
rtoes -0.554868
lfemur 10.612 1.34171 -16.6532
ltibia -2.12089
lfoot -10.8235 7.94295
ltoes 0
72
root -28.5675 17.1445 0.174877 24.9396 86.0293 22.6022
lowerback 4.71763 0.90051 -4.07977
upperback 0.997488 1.0108 -0.345975
thorax -1.68191 0.530158 1.87006
lowerneck -20.8023 2.42387 3.965
upperneck 25.5166 2.80032 -1.54796
head 11.9145 1.5347 -0.771119
rclavicle 1.16538e-014 -6.06293e-015
rhumerus -33.0197 1.69069 -88.236
rradius 29.7628
rwrist 6.8896
rhand -12.304 -26.553
rfingers 7.12502
rthumb 13.764 -56.0777
lclavicle 1.16538e-014 -6.06293e-015
lhumerus -29.5709 -10.3863 90.4138
lradius 22.2175
lwrist -17.2442
lhand -15.4016 -27.0468
lfingers 7.12502
lthumb 10.7774 2.65667
rfemur 8.01251 -3.16832 12.6414
rtibia 3.82739
rfoot -15.4807 -4.27239
rtoes -0.726927
lfemur 10.5581 1.68561 -16.5277
ltibia -1.89574
lfoot -10.8423 7.62519
ltoes 0
